<svg xmlns="http://www.w3.org/2000/svg" width="9.749" height="9.746" viewBox="0 0 9.749 9.746">
  <path id="Path_16" data-name="Path 16" d="M625.453,4243.793h-7.539a.467.467,0,0,0-.052-.018,1.243,1.243,0,0,1-1.006-.9c-.019-.059-.031-.121-.046-.182v-6.776a.246.246,0,0,0,.017-.043,1.253,1.253,0,0,1,1.26-1.06h.855c0-.161,0-.307,0-.452a.293.293,0,0,1,.169-.277.3.3,0,0,1,.439.272c0,.151,0,.3,0,.452h4.265c0-.159,0-.314,0-.468a.3.3,0,0,1,.3-.288.307.307,0,0,1,.31.287c0,.053,0,.107,0,.161v.313c.3,0,.592,0,.88,0a1.252,1.252,0,0,1,1.251,1.246c0,2.163.006,4.326,0,6.489a1.2,1.2,0,0,1-.775,1.151A2.439,2.439,0,0,1,625.453,4243.793Zm-8.034-6.393v.1q0,2.493,0,4.986a.65.65,0,0,0,.7.7h7.138a.651.651,0,0,0,.7-.7V4237.4Zm8.527-.614c0-.264.008-.518,0-.771a.628.628,0,0,0-.507-.578,1.448,1.448,0,0,0-.265-.018c-.246,0-.492,0-.747,0,0,.1,0,.2,0,.293a.3.3,0,1,1-.608,0c0-.094,0-.188,0-.286h-4.265c0,.1,0,.194,0,.289a.3.3,0,1,1-.608,0c0-.094,0-.188,0-.285-.326,0-.644-.019-.958.005a.625.625,0,0,0-.564.636c0,.168,0,.336,0,.5v.216Z" transform="translate(-616.81 -4234.047)" fill="#8b8d90"/>
</svg>
